.
 
http://www.scenetime.com    -  Hottest private tracker on the net. !!!

New release on http://www.scenetime.com

        Seed back for speed


...................................NFO:.................................................[img]http://img233.imageshack.us/img233/8850/ninjasvsvampiresposter.jpg[/img]
[pre]
     _______.     ___      .___  ___.  __    __  .______          ___       __  
    /       |    /   \     |   \/   | |  |  |  | |   _  \        /   \     |  | 
   |   (----`   /  ^  \    |  \  /  | |  |  |  | |  |_)  |      /  ^  \    |  | 
    \   \      /  /_\  \   |  |\/|  | |  |  |  | |      /      /  /_\  \   |  | 
.----)   |    /  _____  \  |  |  |  | |  `--'  | |  |\  \----./  _____  \  |  | 
|_______/    /__/     \__\ |__|  |__|  \______/  | _| `._____/__/     \__\ |__| 
                                                                                

Ninjas.Vs.Vampires.2010.DVDRiP.AC-3.XViD-SAMURAi

ANOTHER QUALiTY SAMURAi RELEASE!!!

Encoder........: SAMURAi
Video Codec....: XViD
Audio Codec....: AC-3
Audio Bitrate..: 192 kb/s
Subtitles......: N/a
Resolution.....: 720 x 304
Runtime........: 89 min  
Language.......: English
IMDB Link......: http://www.imdb.com/title/tt1748134/
Genre..........: Action | Comedy | Fantasy
Ratings........: 4.0/10 from 201 users
Stars..........: Jay Saunders, Daniel Ross and Cory Okouchi
Plot...........: Ninjas battle Vampires for the fate of the world in this all
new Action-Horror-Comedy from the creators of 2010's cult smash... 



Video Source: Ninjas.VS.Vampires.2010.COMPLETE.PAL.DVDR-FEATURE
Audio Source: Ninjas.VS.Vampires.2010.COMPLETE.PAL.DVDR-FEATURE
 
Format                           : AVI
Format/Info                      : Audio Video Interleave
File size                        : 1.21 GiB
Duration                         : 1h 28mn
Overall bit rate                 : 1 969 Kbps
Writing application              : VirtualDubMod 1.5.10.2 (build 2540/release)
Writing library                  : VirtualDubMod build 2540/release

Video
ID                               : 0
Format                           : MPEG-4 Visual
Format profile                   : Advanced Simple@L5
Format settings, BVOP            : 2
Format settings, QPel            : No
Format settings, GMC             : No warppoints
Format settings, Matrix          : Default (H.263)
Muxing mode                      : Packed bitstream
Codec ID                         : XVID
Codec ID/Hint                    : XviD
Duration                         : 1h 28mn
Bit rate                         : 1 767 Kbps
Width                            : 720 pixels
Height                           : 304 pixels
Display aspect ratio             : 2.35:1
Frame rate                       : 25.000 fps
Color space                      : YUV
Chroma subsampling               : 4:2:0
Bit depth                        : 8 bits
Scan type                        : Progressive
Compression mode                 : Lossy
Bits/(Pixel*Frame)               : 0.323
Stream size                      : 1.09 GiB (90%)
Writing library                  : XviD 64

Audio
ID                               : 1
Format                           : AC-3
Format/Info                      : Audio Coding 3
Mode extension                   : CM (complete main)
Codec ID                         : 2000
Duration                         : 1h 28mn
Bit rate mode                    : Constant
Bit rate                         : 192 Kbps
Channel(s)                       : 2 channels
Channel positions                : Front: L R
Sampling rate                    : 48.0 KHz
Bit depth                        : 16 bits
Compression mode                 : Lossy
Stream size                      : 121 MiB (10%)
Alignment                        : Split accross interleaves
Interleave, duration             : 40 ms (1.00 video frame)
Interleave, preload duration     : 500 ms




Release Notes:
B rated film, did a few filters to it, nice dvdr source thanks feature! dvdr
only had 192 kb ac-3 so used that enjoy.


Screenshots:
[img]http://img263.imageshack.us/img263/9673/vlcsnap2011092020h47m59.png[/img]
[img]http://img801.imageshack.us/img801/8396/vlcsnap2011092020h48m26.png[/img]
[img]http://img94.imageshack.us/img94/3373/vlcsnap2011092020h48m37.png[/img]
[img]http://img3.imageshack.us/img3/3290/vlcsnap2011092020h48m44.png[/img]
[img]http://img199.imageshack.us/img199/4714/vlcsnap2011092020h49m29.png[/img]
[img]http://img854.imageshack.us/img854/636/vlcsnap2011092020h49m52.png[/img]



Greetz:
ViSiON, SiC, SANTi, IMAGiNE, MEM, LKRG, DTRG, FLAWL3SS, WBZ, NPW,
CM8, UnKnown, ETRG, SaM, Blackjesus, NOiR, EP1C, EMBER...and other p2p
groups past and present good job!

[/pre]